# Landmark verification mesh
# Each sphere marks a landmark position

# Landmark 0: jaw_right_ear (vertex 6498)
o landmark_0_jaw_right_ear
v -0.048429 0.118610 0.033995
v -0.054429 0.118610 0.033995
v -0.051429 0.121610 0.033995
v -0.051429 0.115610 0.033995
v -0.051429 0.118610 0.036995
v -0.051429 0.118610 0.030995
f 1 3 5
f 1 5 4
f 1 4 6
f 1 6 3
f 2 5 3
f 2 4 5
f 2 6 4
f 2 3 6

# Landmark 1: jaw_right_1 (vertex 6495)
o landmark_1_jaw_right_1
v -0.045074 0.111787 0.039375
v -0.051074 0.111787 0.039375
v -0.048074 0.114787 0.039375
v -0.048074 0.108787 0.039375
v -0.048074 0.111787 0.042375
v -0.048074 0.111787 0.036375
f 7 9 11
f 7 11 10
f 7 10 12
f 7 12 9
f 8 11 9
f 8 10 11
f 8 12 10
f 8 9 12

# Landmark 2: jaw_right_2 (vertex 11731)
o landmark_2_jaw_right_2
v -0.055669 0.105311 0.041997
v -0.061669 0.105311 0.041997
v -0.058669 0.108311 0.041997
v -0.058669 0.102311 0.041997
v -0.058669 0.105311 0.044997
v -0.058669 0.105311 0.038997
f 13 15 17
f 13 17 16
f 13 16 18
f 13 18 15
f 14 17 15
f 14 16 17
f 14 18 16
f 14 15 18

# Landmark 3: jaw_right_3 (vertex 11526)
o landmark_3_jaw_right_3
v -0.052155 0.098490 0.050082
v -0.058155 0.098490 0.050082
v -0.055155 0.101490 0.050082
v -0.055155 0.095490 0.050082
v -0.055155 0.098490 0.053082
v -0.055155 0.098490 0.047082
f 19 21 23
f 19 23 22
f 19 22 24
f 19 24 21
f 20 23 21
f 20 22 23
f 20 24 22
f 20 21 24

# Landmark 4: jaw_right_4 (vertex 11532)
o landmark_4_jaw_right_4
v -0.030277 0.091696 0.059394
v -0.036277 0.091696 0.059394
v -0.033277 0.094696 0.059394
v -0.033277 0.088696 0.059394
v -0.033277 0.091696 0.062394
v -0.033277 0.091696 0.056394
f 25 27 29
f 25 29 28
f 25 28 30
f 25 30 27
f 26 29 27
f 26 28 29
f 26 30 28
f 26 27 30

# Landmark 5: jaw_right_chin (vertex 11483)
o landmark_5_jaw_right_chin
v -0.027085 0.084413 0.063659
v -0.033085 0.084413 0.063659
v -0.030085 0.087413 0.063659
v -0.030085 0.081413 0.063659
v -0.030085 0.084413 0.066659
v -0.030085 0.084413 0.060659
f 31 33 35
f 31 35 34
f 31 34 36
f 31 36 33
f 32 35 33
f 32 34 35
f 32 36 34
f 32 33 36

# Landmark 6: jaw_chin_right (vertex 11482)
o landmark_6_jaw_chin_right
v -0.029054 0.077670 0.066887
v -0.035054 0.077670 0.066887
v -0.032054 0.080670 0.066887
v -0.032054 0.074670 0.066887
v -0.032054 0.077670 0.069887
v -0.032054 0.077670 0.063887
f 37 39 41
f 37 41 40
f 37 40 42
f 37 42 39
f 38 41 39
f 38 40 41
f 38 42 40
f 38 39 42

# Landmark 7: jaw_chin_center (vertex 11739)
o landmark_7_jaw_chin_center
v -0.010225 0.075201 0.068616
v -0.016225 0.075201 0.068616
v -0.013225 0.078201 0.068616
v -0.013225 0.072201 0.068616
v -0.013225 0.075201 0.071616
v -0.013225 0.075201 0.065616
f 43 45 47
f 43 47 46
f 43 46 48
f 43 48 45
f 44 47 45
f 44 46 47
f 44 48 46
f 44 45 48

# Landmark 8: jaw_chin_bottom (vertex 12361)
o landmark_8_jaw_chin_bottom
v 0.002880 0.067783 0.072858
v -0.003121 0.067783 0.072858
v -0.000121 0.070783 0.072858
v -0.000121 0.064783 0.072858
v -0.000121 0.067783 0.075858
v -0.000121 0.067783 0.069858
f 49 51 53
f 49 53 52
f 49 52 54
f 49 54 51
f 50 53 51
f 50 52 53
f 50 54 52
f 50 51 54

# Landmark 9: jaw_chin_left (vertex 5611)
o landmark_9_jaw_chin_left
v 0.015984 0.075199 0.068611
v 0.009984 0.075199 0.068611
v 0.012984 0.078199 0.068611
v 0.012984 0.072199 0.068611
v 0.012984 0.075199 0.071611
v 0.012984 0.075199 0.065611
f 55 57 59
f 55 59 58
f 55 58 60
f 55 60 57
f 56 59 57
f 56 58 59
f 56 60 58
f 56 57 60

# Landmark 10: jaw_left_chin (vertex 5354)
o landmark_10_jaw_left_chin
v 0.034808 0.077669 0.066882
v 0.028808 0.077669 0.066882
v 0.031808 0.080669 0.066882
v 0.031808 0.074669 0.066882
v 0.031808 0.077669 0.069882
v 0.031808 0.077669 0.063882
f 61 63 65
f 61 65 64
f 61 64 66
f 61 66 63
f 62 65 63
f 62 64 65
f 62 66 64
f 62 63 66

# Landmark 11: jaw_left_4 (vertex 5355)
o landmark_11_jaw_left_4
v 0.032840 0.084406 0.063645
v 0.026840 0.084406 0.063645
v 0.029840 0.087406 0.063645
v 0.029840 0.081406 0.063645
v 0.029840 0.084406 0.066645
v 0.029840 0.084406 0.060645
f 67 69 71
f 67 71 70
f 67 70 72
f 67 72 69
f 68 71 69
f 68 70 71
f 68 72 70
f 68 69 72

# Landmark 12: jaw_left_3 (vertex 5404)
o landmark_12_jaw_left_3
v 0.036030 0.091682 0.059369
v 0.030030 0.091682 0.059369
v 0.033030 0.094682 0.059369
v 0.033030 0.088682 0.059369
v 0.033030 0.091682 0.062369
v 0.033030 0.091682 0.056369
f 73 75 77
f 73 77 76
f 73 76 78
f 73 78 75
f 74 77 75
f 74 76 77
f 74 78 76
f 74 75 78

# Landmark 13: jaw_left_2 (vertex 5398)
o landmark_13_jaw_left_2
v 0.057916 0.098492 0.050084
v 0.051916 0.098492 0.050084
v 0.054916 0.101492 0.050084
v 0.054916 0.095492 0.050084
v 0.054916 0.098492 0.053084
v 0.054916 0.098492 0.047084
f 79 81 83
f 79 83 82
f 79 82 84
f 79 84 81
f 80 83 81
f 80 82 83
f 80 84 82
f 80 81 84

# Landmark 14: jaw_left_1 (vertex 5603)
o landmark_14_jaw_left_1
v 0.061430 0.105315 0.042001
v 0.055430 0.105315 0.042001
v 0.058430 0.108315 0.042001
v 0.058430 0.102315 0.042001
v 0.058430 0.105315 0.045001
v 0.058430 0.105315 0.039001
f 85 87 89
f 85 89 88
f 85 88 90
f 85 90 87
f 86 89 87
f 86 88 89
f 86 90 88
f 86 87 90

# Landmark 15: jaw_left_ear_low (vertex 367)
o landmark_15_jaw_left_ear_low
v 0.050829 0.111789 0.039380
v 0.044829 0.111789 0.039380
v 0.047829 0.114789 0.039380
v 0.047829 0.108789 0.039380
v 0.047829 0.111789 0.042380
v 0.047829 0.111789 0.036380
f 91 93 95
f 91 95 94
f 91 94 96
f 91 96 93
f 92 95 93
f 92 94 95
f 92 96 94
f 92 93 96

# Landmark 16: jaw_left_ear (vertex 372)
o landmark_16_jaw_left_ear
v 0.057178 0.119615 0.031666
v 0.051178 0.119615 0.031666
v 0.054178 0.122615 0.031666
v 0.054178 0.116615 0.031666
v 0.054178 0.119615 0.034666
v 0.054178 0.119615 0.028666
f 97 99 101
f 97 101 100
f 97 100 102
f 97 102 99
f 98 101 99
f 98 100 101
f 98 102 100
f 98 99 102

# Landmark 17: left_brow_inner (vertex 1706)
o landmark_17_left_brow_inner
v 0.011583 0.268971 0.145153
v 0.005583 0.268971 0.145153
v 0.008583 0.271971 0.145153
v 0.008583 0.265971 0.145153
v 0.008583 0.268971 0.148153
v 0.008583 0.268971 0.142153
f 103 105 107
f 103 107 106
f 103 106 108
f 103 108 105
f 104 107 105
f 104 106 107
f 104 108 106
f 104 105 108

# Landmark 18: left_brow_1 (vertex 3810)
o landmark_18_left_brow_1
v 0.022618 0.247558 0.126224
v 0.016618 0.247558 0.126224
v 0.019618 0.250558 0.126224
v 0.019618 0.244558 0.126224
v 0.019618 0.247558 0.129224
v 0.019618 0.247558 0.123224
f 109 111 113
f 109 113 112
f 109 112 114
f 109 114 111
f 110 113 111
f 110 112 113
f 110 114 112
f 110 111 114

# Landmark 19: left_brow_center (vertex 3781)
o landmark_19_left_brow_center
v 0.034077 0.256200 0.119122
v 0.028077 0.256200 0.119122
v 0.031077 0.259200 0.119122
v 0.031077 0.253200 0.119122
v 0.031077 0.256200 0.122122
v 0.031077 0.256200 0.116122
f 115 117 119
f 115 119 118
f 115 118 120
f 115 120 117
f 116 119 117
f 116 118 119
f 116 120 118
f 116 117 120

# Landmark 20: left_brow_2 (vertex 685)
o landmark_20_left_brow_2
v 0.045590 0.264072 0.113387
v 0.039590 0.264072 0.113387
v 0.042590 0.267072 0.113387
v 0.042590 0.261072 0.113387
v 0.042590 0.264072 0.116387
v 0.042590 0.264072 0.110387
f 121 123 125
f 121 125 124
f 121 124 126
f 121 126 123
f 122 125 123
f 122 124 125
f 122 126 124
f 122 123 126

# Landmark 21: left_brow_outer (vertex 1461)
o landmark_21_left_brow_outer
v 0.057362 0.268093 0.104038
v 0.051362 0.268093 0.104038
v 0.054362 0.271093 0.104038
v 0.054362 0.265093 0.104038
v 0.054362 0.268093 0.107038
v 0.054362 0.268093 0.101038
f 127 129 131
f 127 131 130
f 127 130 132
f 127 132 129
f 128 131 129
f 128 130 131
f 128 132 130
f 128 129 132

# Landmark 22: right_brow_inner (vertex 7834)
o landmark_22_right_brow_inner
v -0.005818 0.268971 0.145151
v -0.011818 0.268971 0.145151
v -0.008818 0.271971 0.145151
v -0.008818 0.265971 0.145151
v -0.008818 0.268971 0.148151
v -0.008818 0.268971 0.142151
f 133 135 137
f 133 137 136
f 133 136 138
f 133 138 135
f 134 137 135
f 134 136 137
f 134 138 136
f 134 135 138

# Landmark 23: right_brow_1 (vertex 9938)
o landmark_23_right_brow_1
v -0.016853 0.247562 0.126227
v -0.022853 0.247562 0.126227
v -0.019853 0.250562 0.126227
v -0.019853 0.244562 0.126227
v -0.019853 0.247562 0.129227
v -0.019853 0.247562 0.123227
f 139 141 143
f 139 143 142
f 139 142 144
f 139 144 141
f 140 143 141
f 140 142 143
f 140 144 142
f 140 141 144

# Landmark 24: right_brow_center (vertex 9909)
o landmark_24_right_brow_center
v -0.028318 0.256200 0.119111
v -0.034318 0.256200 0.119111
v -0.031318 0.259200 0.119111
v -0.031318 0.253200 0.119111
v -0.031318 0.256200 0.122111
v -0.031318 0.256200 0.116111
f 145 147 149
f 145 149 148
f 145 148 150
f 145 150 147
f 146 149 147
f 146 148 149
f 146 150 148
f 146 147 150

# Landmark 25: right_brow_2 (vertex 6813)
o landmark_25_right_brow_2
v -0.039826 0.264071 0.113375
v -0.045826 0.264071 0.113375
v -0.042826 0.267071 0.113375
v -0.042826 0.261071 0.113375
v -0.042826 0.264071 0.116375
v -0.042826 0.264071 0.110375
f 151 153 155
f 151 155 154
f 151 154 156
f 151 156 153
f 152 155 153
f 152 154 155
f 152 156 154
f 152 153 156

# Landmark 26: right_brow_outer (vertex 7599)
o landmark_26_right_brow_outer
v -0.051283 0.273755 0.104549
v -0.057283 0.273755 0.104549
v -0.054283 0.276755 0.104549
v -0.054283 0.270755 0.104549
v -0.054283 0.273755 0.107549
v -0.054283 0.273755 0.101549
f 157 159 161
f 157 161 160
f 157 160 162
f 157 162 159
f 158 161 159
f 158 160 161
f 158 162 160
f 158 159 162

# Landmark 27: nose_bridge_top (vertex 12276)
o landmark_27_nose_bridge_top
v 0.002884 0.239560 0.137659
v -0.003116 0.239560 0.137659
v -0.000116 0.242560 0.137659
v -0.000116 0.236560 0.137659
v -0.000116 0.239560 0.140659
v -0.000116 0.239560 0.134659
f 163 165 167
f 163 167 166
f 163 166 168
f 163 168 165
f 164 167 165
f 164 166 167
f 164 168 166
f 164 165 168

# Landmark 28: nose_bridge_1 (vertex 12269)
o landmark_28_nose_bridge_1
v 0.002895 0.221465 0.132721
v -0.003105 0.221465 0.132721
v -0.000105 0.224465 0.132721
v -0.000105 0.218465 0.132721
v -0.000105 0.221465 0.135721
v -0.000105 0.221465 0.129721
f 169 171 173
f 169 173 172
f 169 172 174
f 169 174 171
f 170 173 171
f 170 172 173
f 170 174 172
f 170 171 174

# Landmark 29: nose_bridge_2 (vertex 12261)
o landmark_29_nose_bridge_2
v 0.002898 0.204461 0.129021
v -0.003102 0.204461 0.129021
v -0.000102 0.207461 0.129021
v -0.000102 0.201461 0.129021
v -0.000102 0.204461 0.132021
v -0.000102 0.204461 0.126021
f 175 177 179
f 175 179 178
f 175 178 180
f 175 180 177
f 176 179 177
f 176 178 179
f 176 180 178
f 176 177 180

# Landmark 30: nose_bridge_bottom (vertex 12341)
o landmark_30_nose_bridge_bottom
v 0.002876 0.182266 0.079789
v -0.003124 0.182266 0.079789
v -0.000124 0.185266 0.079789
v -0.000124 0.179266 0.079789
v -0.000124 0.182266 0.082789
v -0.000124 0.182266 0.076789
f 181 183 185
f 181 185 184
f 181 184 186
f 181 186 183
f 182 185 183
f 182 184 185
f 182 186 184
f 182 183 186

# Landmark 31: nose_left_wing (vertex 3518)
o landmark_31_nose_left_wing
v 0.016414 0.159938 0.061456
v 0.010414 0.159938 0.061456
v 0.013414 0.162938 0.061456
v 0.013414 0.156938 0.061456
v 0.013414 0.159938 0.064456
v 0.013414 0.159938 0.058456
f 187 189 191
f 187 191 190
f 187 190 192
f 187 192 189
f 188 191 189
f 188 190 191
f 188 192 190
f 188 189 192

# Landmark 32: nose_left_nostril (vertex 3849)
o landmark_32_nose_left_nostril
v 0.005632 0.157880 0.064525
v -0.000368 0.157880 0.064525
v 0.002632 0.160880 0.064525
v 0.002632 0.154880 0.064525
v 0.002632 0.157880 0.067525
v 0.002632 0.157880 0.061525
f 193 195 197
f 193 197 196
f 193 196 198
f 193 198 195
f 194 197 195
f 194 196 197
f 194 198 196
f 194 195 198

# Landmark 33: nose_tip (vertex 12372)
o landmark_33_nose_tip
v 0.002867 0.166664 0.069256
v -0.003133 0.166664 0.069256
v -0.000133 0.169664 0.069256
v -0.000133 0.163664 0.069256
v -0.000133 0.166664 0.072256
v -0.000133 0.166664 0.066256
f 199 201 203
f 199 203 202
f 199 202 204
f 199 204 201
f 200 203 201
f 200 202 203
f 200 204 202
f 200 201 204

# Landmark 34: nose_right_nostril (vertex 9977)
o landmark_34_nose_right_nostril
v 0.000106 0.157882 0.064522
v -0.005894 0.157882 0.064522
v -0.002894 0.160882 0.064522
v -0.002894 0.154882 0.064522
v -0.002894 0.157882 0.067522
v -0.002894 0.157882 0.061522
f 205 207 209
f 205 209 208
f 205 208 210
f 205 210 207
f 206 209 207
f 206 208 209
f 206 210 208
f 206 207 210

# Landmark 35: nose_right_wing (vertex 9646)
o landmark_35_nose_right_wing
v -0.010680 0.159935 0.061467
v -0.016679 0.159935 0.061467
v -0.013680 0.162935 0.061467
v -0.013680 0.156935 0.061467
v -0.013680 0.159935 0.064467
v -0.013680 0.159935 0.058467
f 211 213 215
f 211 215 214
f 211 214 216
f 211 216 213
f 212 215 213
f 212 214 215
f 212 216 214
f 212 213 216

# Landmark 36: left_eye_outer (vertex 3931)
o landmark_36_left_eye_outer
v 0.044936 0.236420 0.109500
v 0.038936 0.236420 0.109500
v 0.041936 0.239420 0.109500
v 0.041936 0.233420 0.109500
v 0.041936 0.236420 0.112500
v 0.041936 0.236420 0.106500
f 217 219 221
f 217 221 220
f 217 220 222
f 217 222 219
f 218 221 219
f 218 220 221
f 218 222 220
f 218 219 222

# Landmark 37: left_eye_top_outer (vertex 1581)
o landmark_37_left_eye_top_outer
v 0.039715 0.243665 0.115521
v 0.033715 0.243665 0.115521
v 0.036715 0.246665 0.115521
v 0.036715 0.240665 0.115521
v 0.036715 0.243665 0.118521
v 0.036715 0.243665 0.112521
f 223 225 227
f 223 227 226
f 223 226 228
f 223 228 225
f 224 227 225
f 224 226 227
f 224 228 226
f 224 225 228

# Landmark 38: left_eye_top_inner (vertex 4053)
o landmark_38_left_eye_top_inner
v 0.027217 0.238756 0.124482
v 0.021217 0.238756 0.124482
v 0.024217 0.241756 0.124482
v 0.024217 0.235756 0.124482
v 0.024217 0.238756 0.127482
v 0.024217 0.238756 0.121482
f 229 231 233
f 229 233 232
f 229 232 234
f 229 234 231
f 230 233 231
f 230 232 233
f 230 234 232
f 230 231 234

# Landmark 39: left_eye_inner (vertex 4590)
o landmark_39_left_eye_inner
v 0.020585 0.236604 0.130001
v 0.014585 0.236604 0.130001
v 0.017585 0.239604 0.130001
v 0.017585 0.233604 0.130001
v 0.017585 0.236604 0.133001
v 0.017585 0.236604 0.127001
f 235 237 239
f 235 239 238
f 235 238 240
f 235 240 237
f 236 239 237
f 236 238 239
f 236 240 238
f 236 237 240

# Landmark 40: left_eye_bottom_inner (vertex 4518)
o landmark_40_left_eye_bottom_inner
v 0.026597 0.225026 0.121494
v 0.020597 0.225026 0.121494
v 0.023597 0.228026 0.121494
v 0.023597 0.222026 0.121494
v 0.023597 0.225026 0.124494
v 0.023597 0.225026 0.118494
f 241 243 245
f 241 245 244
f 241 244 246
f 241 246 243
f 242 245 243
f 242 244 245
f 242 246 244
f 242 243 246

# Landmark 41: left_eye_bottom_outer (vertex 4064)
o landmark_41_left_eye_bottom_outer
v 0.038727 0.226950 0.113450
v 0.032727 0.226950 0.113450
v 0.035727 0.229950 0.113450
v 0.035727 0.223950 0.113450
v 0.035727 0.226950 0.116450
v 0.035727 0.226950 0.110450
f 247 249 251
f 247 251 250
f 247 250 252
f 247 252 249
f 248 251 249
f 248 250 251
f 248 252 250
f 248 249 252

# Landmark 42: right_eye_inner (vertex 10718)
o landmark_42_right_eye_inner
v -0.014798 0.236629 0.130003
v -0.020798 0.236629 0.130003
v -0.017798 0.239629 0.130003
v -0.017798 0.233629 0.130003
v -0.017798 0.236629 0.133003
v -0.017798 0.236629 0.127003
f 253 255 257
f 253 257 256
f 253 256 258
f 253 258 255
f 254 257 255
f 254 256 257
f 254 258 256
f 254 255 258

# Landmark 43: right_eye_top_inner (vertex 10644)
o landmark_43_right_eye_top_inner
v -0.020559 0.237785 0.125104
v -0.026559 0.237785 0.125104
v -0.023559 0.240785 0.125104
v -0.023559 0.234785 0.125104
v -0.023559 0.237785 0.128104
v -0.023559 0.237785 0.122104
f 259 261 263
f 259 263 262
f 259 262 264
f 259 264 261
f 260 263 261
f 260 262 263
f 260 264 262
f 260 261 264

# Landmark 44: right_eye_top_outer (vertex 7709)
o landmark_44_right_eye_top_outer
v -0.033952 0.243661 0.115519
v -0.039952 0.243661 0.115519
v -0.036952 0.246661 0.115519
v -0.036952 0.240661 0.115519
v -0.036952 0.243661 0.118519
v -0.036952 0.243661 0.112519
f 265 267 269
f 265 269 268
f 265 268 270
f 265 270 267
f 266 269 267
f 266 268 269
f 266 270 268
f 266 267 270

# Landmark 45: right_eye_outer (vertex 10059)
o landmark_45_right_eye_outer
v -0.039175 0.236415 0.109504
v -0.045175 0.236415 0.109504
v -0.042175 0.239415 0.109504
v -0.042175 0.233415 0.109504
v -0.042175 0.236415 0.112504
v -0.042175 0.236415 0.106504
f 271 273 275
f 271 275 274
f 271 274 276
f 271 276 273
f 272 275 273
f 272 274 275
f 272 276 274
f 272 273 276

# Landmark 46: right_eye_bottom_outer (vertex 10192)
o landmark_46_right_eye_bottom_outer
v -0.032954 0.226943 0.113461
v -0.038954 0.226943 0.113461
v -0.035954 0.229943 0.113461
v -0.035954 0.223943 0.113461
v -0.035954 0.226943 0.116461
v -0.035954 0.226943 0.110461
f 277 279 281
f 277 281 280
f 277 280 282
f 277 282 279
f 278 281 279
f 278 280 281
f 278 282 280
f 278 279 282

# Landmark 47: right_eye_bottom_inner (vertex 10646)
o landmark_47_right_eye_bottom_inner
v -0.020824 0.225013 0.121501
v -0.026824 0.225013 0.121501
v -0.023824 0.228013 0.121501
v -0.023824 0.222013 0.121501
v -0.023824 0.225013 0.124501
v -0.023824 0.225013 0.118501
f 283 285 287
f 283 287 286
f 283 286 288
f 283 288 285
f 284 287 285
f 284 286 287
f 284 288 286
f 284 285 288

# Landmark 48: mouth_left (vertex 357)
o landmark_48_mouth_left
v 0.033498 0.107485 0.048830
v 0.027498 0.107485 0.048830
v 0.030498 0.110485 0.048830
v 0.030498 0.104485 0.048830
v 0.030498 0.107485 0.051830
v 0.030498 0.107485 0.045830
f 289 291 293
f 289 293 292
f 289 292 294
f 289 294 291
f 290 293 291
f 290 292 293
f 290 294 292
f 290 291 294

# Landmark 49: mouth_top_left_1 (vertex 184)
o landmark_49_mouth_top_left_1
v 0.016896 0.127768 0.050444
v 0.010896 0.127768 0.050444
v 0.013896 0.130768 0.050444
v 0.013896 0.124768 0.050444
v 0.013896 0.127768 0.053444
v 0.013896 0.127768 0.047444
f 295 297 299
f 295 299 298
f 295 298 300
f 295 300 297
f 296 299 297
f 296 298 299
f 296 300 298
f 296 297 300

# Landmark 50: mouth_top_left_2 (vertex 42)
o landmark_50_mouth_top_left_2
v 0.006536 0.126522 0.051055
v 0.000536 0.126522 0.051055
v 0.003536 0.129522 0.051055
v 0.003536 0.123522 0.051055
v 0.003536 0.126522 0.054055
v 0.003536 0.126522 0.048055
f 301 303 305
f 301 305 304
f 301 304 306
f 301 306 303
f 302 305 303
f 302 304 305
f 302 306 304
f 302 303 306

# Landmark 51: mouth_top_center (vertex 12364)
o landmark_51_mouth_top_center
v 0.002876 0.132058 0.053386
v -0.003124 0.132058 0.053386
v -0.000124 0.135058 0.053386
v -0.000124 0.129058 0.053386
v -0.000124 0.132058 0.056386
v -0.000124 0.132058 0.050386
f 307 309 311
f 307 311 310
f 307 310 312
f 307 312 309
f 308 311 309
f 308 310 311
f 308 312 310
f 308 309 312

# Landmark 52: mouth_top_right_2 (vertex 6170)
o landmark_52_mouth_top_right_2
v -0.000785 0.126517 0.051067
v -0.006785 0.126517 0.051067
v -0.003785 0.129517 0.051067
v -0.003785 0.123517 0.051067
v -0.003785 0.126517 0.054067
v -0.003785 0.126517 0.048067
f 313 315 317
f 313 317 316
f 313 316 318
f 313 318 315
f 314 317 315
f 314 316 317
f 314 318 316
f 314 315 318

# Landmark 53: mouth_top_right_1 (vertex 6175)
o landmark_53_mouth_top_right_1
v -0.007819 0.127257 0.050700
v -0.013819 0.127257 0.050700
v -0.010819 0.130257 0.050700
v -0.010819 0.124257 0.050700
v -0.010819 0.127257 0.053700
v -0.010819 0.127257 0.047700
f 319 321 323
f 319 323 322
f 319 322 324
f 319 324 321
f 320 323 321
f 320 322 323
f 320 324 322
f 320 321 324

# Landmark 54: mouth_right (vertex 6485)
o landmark_54_mouth_right
v -0.027744 0.107491 0.048840
v -0.033744 0.107491 0.048840
v -0.030744 0.110491 0.048840
v -0.030744 0.104491 0.048840
v -0.030744 0.107491 0.051840
v -0.030744 0.107491 0.045840
f 325 327 329
f 325 329 328
f 325 328 330
f 325 330 327
f 326 329 327
f 326 328 329
f 326 330 328
f 326 327 330

# Landmark 55: mouth_bottom_right_1 (vertex 6515)
o landmark_55_mouth_bottom_right_1
v -0.017086 0.100258 0.054418
v -0.023086 0.100258 0.054418
v -0.020086 0.103258 0.054418
v -0.020086 0.097258 0.054418
v -0.020086 0.100258 0.057418
v -0.020086 0.100258 0.051418
f 331 333 335
f 331 335 334
f 331 334 336
f 331 336 333
f 332 335 333
f 332 334 335
f 332 336 334
f 332 333 336

# Landmark 56: mouth_bottom_right_2 (vertex 6521)
o landmark_56_mouth_bottom_right_2
v -0.012349 0.099457 0.054216
v -0.018349 0.099457 0.054216
v -0.015349 0.102457 0.054216
v -0.015349 0.096457 0.054216
v -0.015349 0.099457 0.057216
v -0.015349 0.099457 0.051216
f 337 339 341
f 337 341 340
f 337 340 342
f 337 342 339
f 338 341 339
f 338 340 341
f 338 342 340
f 338 339 342

# Landmark 57: mouth_bottom_center (vertex 405)
o landmark_57_mouth_bottom_center
v 0.008132 0.098243 0.053079
v 0.002132 0.098243 0.053079
v 0.005132 0.101243 0.053079
v 0.005132 0.095243 0.053079
v 0.005132 0.098243 0.056079
v 0.005132 0.098243 0.050079
f 343 345 347
f 343 347 346
f 343 346 348
f 343 348 345
f 344 347 345
f 344 346 347
f 344 348 346
f 344 345 348

# Landmark 58: mouth_bottom_left_2 (vertex 393)
o landmark_58_mouth_bottom_left_2
v 0.018106 0.099455 0.054221
v 0.012106 0.099455 0.054221
v 0.015106 0.102455 0.054221
v 0.015106 0.096455 0.054221
v 0.015106 0.099455 0.057221
v 0.015106 0.099455 0.051221
f 349 351 353
f 349 353 352
f 349 352 354
f 349 354 351
f 350 353 351
f 350 352 353
f 350 354 352
f 350 351 354

# Landmark 59: mouth_bottom_left_1 (vertex 387)
o landmark_59_mouth_bottom_left_1
v 0.022844 0.100254 0.054422
v 0.016844 0.100254 0.054422
v 0.019844 0.103254 0.054422
v 0.019844 0.097254 0.054422
v 0.019844 0.100254 0.057422
v 0.019844 0.100254 0.051422
f 355 357 359
f 355 359 358
f 355 358 360
f 355 360 357
f 356 359 357
f 356 358 359
f 356 360 358
f 356 357 360

# Landmark 60: inner_mouth_left (vertex 350)
o landmark_60_inner_mouth_left
v 0.020224 0.110801 0.049870
v 0.014224 0.110801 0.049870
v 0.017224 0.113801 0.049870
v 0.017224 0.107801 0.049870
v 0.017224 0.110801 0.052870
v 0.017224 0.110801 0.046870
f 361 363 365
f 361 365 364
f 361 364 366
f 361 366 363
f 362 365 363
f 362 364 365
f 362 366 364
f 362 363 366

# Landmark 61: inner_mouth_top_left (vertex 48)
o landmark_61_inner_mouth_top_left
v 0.014364 0.121537 0.049345
v 0.008364 0.121537 0.049345
v 0.011364 0.124537 0.049345
v 0.011364 0.118537 0.049345
v 0.011364 0.121537 0.052345
v 0.011364 0.121537 0.046345
f 367 369 371
f 367 371 370
f 367 370 372
f 367 372 369
f 368 371 369
f 368 370 371
f 368 372 370
f 368 369 372

# Landmark 62: inner_mouth_top_center (vertex 12363)
o landmark_62_inner_mouth_top_center
v 0.002877 0.126412 0.051120
v -0.003123 0.126412 0.051120
v -0.000123 0.129412 0.051120
v -0.000123 0.123412 0.051120
v -0.000123 0.126412 0.054120
v -0.000123 0.126412 0.048120
f 373 375 377
f 373 377 376
f 373 376 378
f 373 378 375
f 374 377 375
f 374 376 377
f 374 378 376
f 374 375 378

# Landmark 63: inner_mouth_top_right (vertex 6176)
o landmark_63_inner_mouth_top_right
v -0.008615 0.121536 0.049338
v -0.014615 0.121536 0.049338
v -0.011615 0.124536 0.049338
v -0.011615 0.118536 0.049338
v -0.011615 0.121536 0.052338
v -0.011615 0.121536 0.046338
f 379 381 383
f 379 383 382
f 379 382 384
f 379 384 381
f 380 383 381
f 380 382 383
f 380 384 382
f 380 381 384

# Landmark 64: inner_mouth_right (vertex 6478)
o landmark_64_inner_mouth_right
v -0.014467 0.110800 0.049870
v -0.020467 0.110800 0.049870
v -0.017467 0.113800 0.049870
v -0.017467 0.107800 0.049870
v -0.017467 0.110800 0.052870
v -0.017467 0.110800 0.046870
f 385 387 389
f 385 389 388
f 385 388 390
f 385 390 387
f 386 389 387
f 386 388 389
f 386 390 388
f 386 387 390

# Landmark 65: inner_mouth_bottom_right (vertex 6479)
o landmark_65_inner_mouth_bottom_right
v -0.015756 0.105415 0.051693
v -0.021756 0.105415 0.051693
v -0.018756 0.108415 0.051693
v -0.018756 0.102415 0.051693
v -0.018756 0.105415 0.054693
v -0.018756 0.105415 0.048693
f 391 393 395
f 391 395 394
f 391 394 396
f 391 396 393
f 392 395 393
f 392 394 395
f 392 396 394
f 392 393 396

# Landmark 66: inner_mouth_bottom_center (vertex 345)
o landmark_66_inner_mouth_bottom_center
v 0.007794 0.103615 0.050256
v 0.001794 0.103615 0.050256
v 0.004794 0.106615 0.050256
v 0.004794 0.100615 0.050256
v 0.004794 0.103615 0.053256
v 0.004794 0.103615 0.047256
f 397 399 401
f 397 401 400
f 397 400 402
f 397 402 399
f 398 401 399
f 398 400 401
f 398 402 400
f 398 399 402

# Landmark 67: inner_mouth_bottom_left (vertex 351)
o landmark_67_inner_mouth_bottom_left
v 0.021513 0.105414 0.051694
v 0.015513 0.105414 0.051694
v 0.018513 0.108414 0.051694
v 0.018513 0.102414 0.051694
v 0.018513 0.105414 0.054694
v 0.018513 0.105414 0.048694
f 403 405 407
f 403 407 406
f 403 406 408
f 403 408 405
f 404 407 405
f 404 406 407
f 404 408 406
f 404 405 408

